<svg xmlns="http://www.w3.org/2000/svg" xmlns:xlink="http://www.w3.org/1999/xlink" width="128" zoomAndPan="magnify" viewBox="0 0 96 95.999999" height="128" preserveAspectRatio="xMidYMid meet" version="1.0"><defs><clipPath id="1709a7e641"><path d="M 50 40 L 96 40 L 96 93.390625 L 50 93.390625 Z M 50 40 " clip-rule="nonzero"/></clipPath><clipPath id="bc1f43da6b"><path d="M 0 40 L 46 40 L 46 93.390625 L 0 93.390625 Z M 0 40 " clip-rule="nonzero"/></clipPath></defs><g clip-path="url(#1709a7e641)"><path fill="#f8731e" d="M 94.503906 41.839844 C 93.527344 40.867188 92.191406 40.4375 90.851562 40.664062 C 89.492188 40.890625 88.359375 41.707031 87.746094 42.929688 L 81.558594 55.308594 C 81.195312 56.058594 80.695312 56.714844 80.015625 57.417969 C 79.902344 57.554688 79.8125 57.691406 79.699219 57.828125 C 76.796875 55.515625 72.667969 55.105469 69.199219 57.054688 C 66.773438 59.097656 63.371094 60.976562 58.972656 62.703125 C 56.230469 64.21875 54.371094 66.988281 53.984375 70.09375 L 52.464844 82.246094 L 50.152344 82.246094 L 50.152344 93.195312 L 76.433594 93.195312 L 76.433594 82.246094 L 75.570312 82.246094 L 88.0625 67.984375 C 88.992188 66.917969 89.675781 65.695312 90.082031 64.332031 L 95.570312 46.035156 C 96 44.539062 95.59375 42.929688 94.503906 41.839844 Z M 74.234375 90.996094 L 52.332031 90.996094 L 52.332031 84.421875 L 74.234375 84.421875 Z M 93.460938 45.402344 L 87.972656 63.675781 C 87.65625 64.742188 87.132812 65.695312 86.410156 66.511719 L 72.667969 82.222656 L 54.710938 82.222656 L 56.183594 70.34375 C 56.480469 67.917969 57.929688 65.785156 59.925781 64.652344 C 64.414062 62.90625 68.019531 60.886719 70.46875 58.800781 C 73.007812 57.394531 76.160156 57.714844 78.382812 59.503906 C 75.003906 63.722656 71.648438 66.917969 68.179688 69.253906 L 67.273438 69.867188 L 68.496094 71.679688 L 69.402344 71.066406 C 73.667969 68.234375 77.726562 64.175781 81.691406 58.800781 C 82.441406 58.054688 83.054688 57.191406 83.53125 56.238281 L 89.71875 43.859375 C 90.015625 43.269531 90.558594 42.863281 91.214844 42.769531 C 91.875 42.679688 92.507812 42.882812 92.960938 43.339844 C 93.484375 43.90625 93.664062 44.675781 93.460938 45.402344 Z M 93.460938 45.402344 " fill-opacity="1" fill-rule="nonzero"/></g><g clip-path="url(#bc1f43da6b)"><path fill="#f8731e" d="M 41.96875 70.09375 C 41.582031 66.988281 39.722656 64.21875 36.84375 62.632812 C 32.558594 60.957031 29.179688 59.074219 26.574219 56.917969 C 23.261719 55.082031 19.160156 55.492188 16.257812 57.828125 C 16.121094 57.644531 15.984375 57.484375 15.847656 57.304688 C 15.257812 56.714844 14.78125 56.058594 14.421875 55.308594 L 8.230469 42.929688 C 7.617188 41.707031 6.484375 40.867188 5.148438 40.664062 C 3.785156 40.4375 2.449219 40.867188 1.496094 41.839844 C 0.40625 42.929688 0 44.539062 0.429688 46.035156 L 5.894531 64.3125 C 6.304688 65.671875 6.984375 66.894531 7.914062 67.960938 L 20.40625 82.246094 L 19.5 82.246094 L 19.5 93.195312 L 45.777344 93.195312 L 45.777344 82.246094 L 43.488281 82.246094 Z M 9.566406 66.53125 C 8.84375 65.695312 8.320312 64.742188 8.003906 63.699219 L 2.492188 45.402344 C 2.289062 44.675781 2.472656 43.90625 2.992188 43.382812 C 3.46875 42.90625 4.105469 42.703125 4.761719 42.816406 C 5.417969 42.929688 5.964844 43.316406 6.257812 43.90625 L 12.449219 56.285156 C 12.925781 57.238281 13.535156 58.097656 14.195312 58.734375 C 18.273438 64.21875 22.332031 68.277344 26.597656 71.113281 L 27.503906 71.726562 L 28.726562 69.910156 L 27.820312 69.300781 C 24.351562 66.988281 21.019531 63.8125 17.617188 59.550781 C 19.839844 57.757812 22.96875 57.417969 25.371094 58.710938 C 27.980469 60.910156 31.585938 62.929688 35.960938 64.605469 C 38.089844 65.785156 39.542969 67.9375 39.835938 70.363281 L 41.3125 82.246094 L 23.355469 82.246094 Z M 43.578125 90.996094 L 21.699219 90.996094 L 21.699219 84.421875 L 43.601562 84.421875 L 43.601562 90.996094 Z M 43.578125 90.996094 " fill-opacity="1" fill-rule="nonzero"/></g><path fill="#f8731e" d="M 75.640625 38.214844 C 83.28125 30.574219 83.28125 18.101562 75.640625 10.460938 C 68.019531 2.84375 55.617188 2.820312 47.976562 10.371094 C 40.3125 2.796875 27.933594 2.820312 20.316406 10.460938 C 12.675781 18.101562 12.675781 30.574219 20.316406 38.214844 L 44.441406 62.359375 C 45.414062 63.335938 46.683594 63.8125 47.976562 63.8125 C 49.269531 63.8125 50.539062 63.335938 51.515625 62.359375 Z M 45.980469 60.820312 L 21.835938 36.671875 C 18.546875 33.382812 16.734375 29.007812 16.734375 24.335938 C 16.734375 19.667969 18.546875 15.289062 21.835938 12.003906 C 25.234375 8.601562 29.703125 6.902344 34.167969 6.902344 C 38.636719 6.902344 43.101562 8.601562 46.503906 12.003906 C 47.320312 12.820312 48.636719 12.820312 49.429688 12.003906 C 56.230469 5.199219 67.296875 5.199219 74.097656 12.003906 C 77.386719 15.289062 79.199219 19.667969 79.199219 24.335938 C 79.199219 29.007812 77.386719 33.382812 74.097656 36.671875 L 49.949219 60.820312 C 48.882812 61.863281 47.046875 61.863281 45.980469 60.820312 Z M 45.980469 60.820312 " fill-opacity="1" fill-rule="nonzero"/><path fill="#f8731e" d="M 52.351562 20.9375 L 43.601562 20.9375 L 43.601562 27.511719 L 37.027344 27.511719 L 37.027344 36.265625 L 43.601562 36.265625 L 43.601562 42.839844 L 52.351562 42.839844 L 52.351562 36.265625 L 58.929688 36.265625 L 58.929688 27.511719 L 52.351562 27.511719 Z M 56.730469 29.6875 L 56.730469 34.066406 L 50.152344 34.066406 L 50.152344 40.640625 L 45.777344 40.640625 L 45.777344 34.066406 L 39.203125 34.066406 L 39.203125 29.6875 L 45.777344 29.6875 L 45.777344 23.113281 L 50.152344 23.113281 L 50.152344 29.6875 Z M 56.730469 29.6875 " fill-opacity="1" fill-rule="nonzero"/></svg>